<?xml version="1.0" encoding="UTF-8" standalone="no"?>
<!-- Generator: Adobe Illustrator 22.0.1, SVG Export Plug-In . SVG Version: 6.00 Build 0)  -->

<svg
   xmlns:dc="http://purl.org/dc/elements/1.1/"
   xmlns:cc="http://creativecommons.org/ns#"
   xmlns:rdf="http://www.w3.org/1999/02/22-rdf-syntax-ns#"
   xmlns:svg="http://www.w3.org/2000/svg"
   xmlns="http://www.w3.org/2000/svg"
   xmlns:sodipodi="http://sodipodi.sourceforge.net/DTD/sodipodi-0.dtd"
   xmlns:inkscape="http://www.inkscape.org/namespaces/inkscape"
   version="1.1"
   id="svg2"
   x="0px"
   y="0px"
   viewBox="0 0 452.3 156.7"
   style="enable-background:new 0 0 452.3 156.7;"
   xml:space="preserve"
   inkscape:version="0.91 r13725"
   sodipodi:docname="astropy-project.svg"><metadata
     id="metadata38"><rdf:RDF><cc:Work
         rdf:about=""><dc:format>image/svg+xml</dc:format><dc:type
           rdf:resource="http://purl.org/dc/dcmitype/StillImage" /></cc:Work></rdf:RDF></metadata><defs
     id="defs36" /><sodipodi:namedview
     pagecolor="#ffffff"
     bordercolor="#666666"
     borderopacity="1"
     objecttolerance="10"
     gridtolerance="10"
     guidetolerance="10"
     inkscape:pageopacity="0"
     inkscape:pageshadow="2"
     inkscape:window-width="1215"
     inkscape:window-height="1000"
     id="namedview34"
     showgrid="false"
     inkscape:zoom="0.65885476"
     inkscape:cx="226.14999"
     inkscape:cy="78.349998"
     inkscape:window-x="1431"
     inkscape:window-y="24"
     inkscape:window-maximized="1"
     inkscape:current-layer="svg2" /><style
     type="text/css"
     id="style3">
	.st0{fill:url(#path3837_1_);}
	.st1{fill:none;stroke:#FFFFFF;stroke-width:13;}
	.st2{fill:#FFFFFF;}
	.st3{fill:#FFFFFF;stroke:#FFFFFF;stroke-width:2.3603;stroke-linecap:round;stroke-linejoin:round;}
	.st4{fill:none;stroke:#FFFFFF;stroke-width:3.7264;}
	.st5{fill:none;stroke:#FFFFFF;stroke-width:4.0254;}
	.st6{fill:none;stroke:#FFFFFF;stroke-width:4.063;}
	.st7{fill:#4D4D4D;}
	.st8{font-family:'SourceSansPro-Regular';}
	.st9{font-size:91px;}
	.st10{fill:#FF5000;}
	.st11{font-family:'SourceSansPro-Light';}
	.st12{font-size:26px;}
	.st13{font-size:35px;}
</style><g
     id="g3366"
     inkscape:export-xdpi="600"
     inkscape:export-ydpi="600"><g
       id="g5"><linearGradient
         gradientTransform="matrix(1.0651 -0.9041 -0.8901 -1.0732 171.9029 4.4848)"
         y2="-44.4139"
         x2="-122.8715"
         y1="51.4545"
         x1="-43.4882"
         gradientUnits="userSpaceOnUse"
         id="path3837_1_"><stop
           id="stop8"
           style="stop-color:#FFA900"
           offset="0" /><stop
           id="stop10"
           style="stop-color:#FD0000"
           offset="1" /></linearGradient><path
         d="M140.9,25.4c23.8,28.7,16,75.1-17.5,103.6s-80,28.2-103.9-0.5h0C-4.4,99.7,3.5,53.3,37,24.9   S117-3.3,140.9,25.4L140.9,25.4z"
         class="st0"
         id="path3837" /><path
         d="M82.1,75.6C60.7,56.3,48.5,84,59.9,101.1c12.5,18.8,39.4,18.4,55.2,4.3c20-17.8,19.5-49.7,2-69"
         class="st1"
         id="path5413" /><path
         d="M95,91.3c-4.8,4.7-16.1,2.6-25.3-4.5l0,0c-9.2-7.2-12.7-16.8-7.9-21.4l0,0   c4.8-4.7,16.1-2.6,25.3,4.5l0,0C96.3,77,99.9,86.6,95,91.3L95,91.3z"
         class="st2"
         id="path3819" /><path
         d="M101.1,28.5l9.3,15.7L124.7,30l-18.1-7.6L101.1,28.5z"
         class="st3"
         id="path3853" /><g
         transform="matrix(0.95039189,0,0,0.93299787,-2.487134,-0.56516029)"
         id="g3804"><path
           d="M105.7,23l-1.6-9.7l0.1,0.3l0,0"
           class="st4"
           id="path3855-7" /><path
           d="M95.6,22.1l10.7,0.5l-0.3,0l0,0"
           class="st5"
           id="path3855-7-0" /><path
           d="M111.9,27.7l-6.8-5.4l0.3,0.2l0,0"
           class="st6"
           id="path3855-7-05" /></g><path
         d="M51.8,131.2c2.4,2.1,10.5,5.5,13.3,9c2.9,3.6,2.4,7.8,2.4,10.2"
         class="st1"
         id="path3942" /><path
         d="M76.7,83.7c26.2,14.4,31.4-16,15.8-30.4c-17.2-15.9-44-9.3-56.3,8.4   c-15.8,22.6-7.1,54.6,15.6,69.6c0.8,0.6,1.7,1.1,2.6,1.6"
         class="st1"
         id="path2987-5" /></g><text
       id="text22"
       transform="matrix(1 0 0 1 154.6667 107.259)"><tspan
         id="tspan24"
         class="st7 st8 st9"
         y="0"
         x="0">Astro</tspan><tspan
         id="tspan26"
         class="st10 st11 st9"
         y="0"
         x="199.3">py</tspan></text>
<text
       id="text28"
       class="st7 st11 st12"
       transform="matrix(1 0 0 1 154.6667 37.9555)">The</text>
<g
       id="g30"><text
         id="text32"
         class="st10 st11 st13"
         transform="matrix(0.9774 0 0 1 238.334 140.8157)">Project</text>
</g></g></svg>