<?xml version="1.0" encoding="UTF-8" standalone="no"?>
<!-- Created with Inkscape (http://www.inkscape.org/) -->

<svg
   xmlns:dc="http://purl.org/dc/elements/1.1/"
   xmlns:cc="http://creativecommons.org/ns#"
   xmlns:rdf="http://www.w3.org/1999/02/22-rdf-syntax-ns#"
   xmlns:svg="http://www.w3.org/2000/svg"
   xmlns="http://www.w3.org/2000/svg"
   xmlns:xlink="http://www.w3.org/1999/xlink"
   xmlns:sodipodi="http://sodipodi.sourceforge.net/DTD/sodipodi-0.dtd"
   xmlns:inkscape="http://www.inkscape.org/namespaces/inkscape"
   id="svg8"
   version="1.1"
   viewBox="0 0 100.69719 97.612511"
   height="97.612511mm"
   width="100.69719mm"
   inkscape:export-filename="/Users/zsailer/github/python-setup-for-scientists/docs/_imgs/miniconda.png"
   inkscape:export-xdpi="300"
   inkscape:export-ydpi="300"
   inkscape:version="0.92.2 5c3e80d, 2017-08-06"
   sodipodi:docname="miniconda.svg">
  <sodipodi:namedview
     inkscape:window-maximized="1"
     inkscape:window-y="0"
     inkscape:window-x="0"
     inkscape:window-height="856"
     inkscape:window-width="1440"
     inkscape:snap-global="false"
     showgrid="false"
     inkscape:current-layer="layer1"
     inkscape:document-units="mm"
     inkscape:cy="102.70643"
     inkscape:cx="151.19443"
     inkscape:zoom="0.49497475"
     inkscape:pageshadow="2"
     inkscape:pageopacity="0.0"
     borderopacity="1.0"
     bordercolor="#666666"
     pagecolor="#ffffff"
     id="base"
     fit-margin-top="0"
     fit-margin-left="0"
     fit-margin-right="0"
     fit-margin-bottom="0" />
  <defs
     id="defs2">
    <path
       d="m 12.125266,1.9631383 c 3.69532,9.8156917 16.628937,22.8647877 32.565001,22.8647877 8.776383,0 16.744416,-3.117925 22.980267,-8.429947 0.461915,-0.230957 4.734628,4.619149 6.466809,6.466809 0.346436,0.461915 0.346436,0.577393 0.346436,0.577393 C 53.46665,41.803299 17.783724,39.147288 0.92382981,7.3906385 2.3095745,2.7714894 4.2727129,0 4.2727129,0 8.7763832,1.8476596 12.125266,1.9631383 12.125266,1.9631383 Z"
       id="path-1"
       inkscape:connector-curvature="0" />
    <rect
       id="path-3"
       x="0.46191722"
       y="0.57739365"
       width="90.535324"
       height="103.93085" />
    <linearGradient
       id="linearGradient2795">
      <stop
         style="stop-color:#b8b8b8;stop-opacity:0.49803922"
         offset="0"
         id="stop2797" />
      <stop
         style="stop-color:#7f7f7f;stop-opacity:0"
         offset="1"
         id="stop2799" />
    </linearGradient>
    <linearGradient
       id="linearGradient2787">
      <stop
         style="stop-color:#7f7f7f;stop-opacity:0.5"
         offset="0"
         id="stop2789" />
      <stop
         style="stop-color:#7f7f7f;stop-opacity:0"
         offset="1"
         id="stop2791" />
    </linearGradient>
    <linearGradient
       id="linearGradient3676">
      <stop
         style="stop-color:#b2b2b2;stop-opacity:0.5"
         offset="0"
         id="stop3678" />
      <stop
         style="stop-color:#b3b3b3;stop-opacity:0"
         offset="1"
         id="stop3680" />
    </linearGradient>
    <linearGradient
       id="linearGradient3236">
      <stop
         style="stop-color:#f4f4f4;stop-opacity:1"
         offset="0"
         id="stop3244" />
      <stop
         style="stop-color:#ffffff;stop-opacity:1"
         offset="1"
         id="stop3240" />
    </linearGradient>
    <linearGradient
       id="linearGradient4671">
      <stop
         style="stop-color:#ffd43b;stop-opacity:1"
         offset="0"
         id="stop4673" />
      <stop
         style="stop-color:#ffe873;stop-opacity:1"
         offset="1"
         id="stop4675" />
    </linearGradient>
    <linearGradient
       id="linearGradient4689">
      <stop
         style="stop-color:#5a9fd4;stop-opacity:1"
         offset="0"
         id="stop4691" />
      <stop
         style="stop-color:#306998;stop-opacity:1"
         offset="1"
         id="stop4693" />
    </linearGradient>
    <linearGradient
       x1="224.23996"
       y1="144.75717"
       x2="-65.308502"
       y2="144.75717"
       id="linearGradient2987"
       xlink:href="#linearGradient4671"
       gradientUnits="userSpaceOnUse"
       gradientTransform="translate(100.2702,99.61116)" />
    <linearGradient
       x1="172.94208"
       y1="77.475983"
       x2="26.670298"
       y2="76.313133"
       id="linearGradient2990"
       xlink:href="#linearGradient4689"
       gradientUnits="userSpaceOnUse"
       gradientTransform="translate(100.2702,99.61116)" />
    <linearGradient
       x1="224.23996"
       y1="144.75717"
       x2="-65.308502"
       y2="144.75717"
       id="linearGradient2255"
       xlink:href="#linearGradient4671"
       gradientUnits="userSpaceOnUse"
       gradientTransform="matrix(0.562541,0,0,0.567972,-11.5974,-7.60954)" />
    <linearGradient
       x1="172.94208"
       y1="76.176224"
       x2="26.670298"
       y2="76.313133"
       id="linearGradient2258"
       xlink:href="#linearGradient4689"
       gradientUnits="userSpaceOnUse"
       gradientTransform="matrix(0.562541,0,0,0.567972,-11.5974,-7.60954)" />
    <radialGradient
       cx="61.518883"
       cy="132.28575"
       r="29.036913"
       fx="61.518883"
       fy="132.28575"
       id="radialGradient2801"
       xlink:href="#linearGradient2795"
       gradientUnits="userSpaceOnUse"
       gradientTransform="matrix(1,0,0,0.177966,0,108.7434)" />
    <linearGradient
       x1="150.96111"
       y1="192.35176"
       x2="112.03144"
       y2="137.27299"
       id="linearGradient1475"
       xlink:href="#linearGradient4671"
       gradientUnits="userSpaceOnUse"
       gradientTransform="matrix(0.562541,0,0,0.567972,-9.399749,-5.305317)" />
    <linearGradient
       x1="26.648937"
       y1="20.603781"
       x2="135.66525"
       y2="114.39767"
       id="linearGradient1478"
       xlink:href="#linearGradient4689"
       gradientUnits="userSpaceOnUse"
       gradientTransform="matrix(0.562541,0,0,0.567972,-9.399749,-5.305317)" />
    <radialGradient
       cx="61.518883"
       cy="132.28575"
       r="29.036913"
       fx="61.518883"
       fy="132.28575"
       id="radialGradient1480"
       xlink:href="#linearGradient2795"
       gradientUnits="userSpaceOnUse"
       gradientTransform="matrix(2.382716e-8,-0.296405,1.43676,4.683673e-7,-128.544,150.5202)" />
  </defs>
  <metadata
     id="metadata5">
    <rdf:RDF>
      <cc:Work
         rdf:about="">
        <dc:format>image/svg+xml</dc:format>
        <dc:type
           rdf:resource="http://purl.org/dc/dcmitype/StillImage" />
        <dc:title></dc:title>
      </cc:Work>
    </rdf:RDF>
  </metadata>
  <g
     id="layer1"
     inkscape:groupmode="layer"
     inkscape:label="Layer 1"
     transform="translate(-35.748541,-4.3041317)">
    <g
       transform="matrix(0.26458333,0,0,0.26458333,21.850282,-4.1873618)"
       id="g1609"
       style="fill:#dfdfdf;fill-opacity:1;stroke:none;stroke-opacity:1" />
    <g
       transform="matrix(0.26458333,0,0,0.26458333,21.850282,-4.1873618)"
       id="g1611"
       style="fill:#dfdfdf;fill-opacity:1;stroke:none;stroke-opacity:1" />
    <g
       transform="matrix(0.26458333,0,0,0.26458333,21.850282,-4.1873618)"
       id="g1613"
       style="fill:#dfdfdf;fill-opacity:1;stroke:none;stroke-opacity:1" />
    <g
       transform="matrix(0.26458333,0,0,0.26458333,21.850282,-4.1873618)"
       id="g1615"
       style="fill:#dfdfdf;fill-opacity:1;stroke:none;stroke-opacity:1" />
    <g
       transform="matrix(0.26458333,0,0,0.26458333,21.850282,-4.1873618)"
       id="g1617"
       style="fill:#dfdfdf;fill-opacity:1;stroke:none;stroke-opacity:1" />
    <g
       transform="matrix(0.26458333,0,0,0.26458333,21.850282,-4.1873618)"
       id="g1619"
       style="fill:#dfdfdf;fill-opacity:1;stroke:none;stroke-opacity:1" />
    <g
       transform="matrix(0.26458333,0,0,0.26458333,21.850282,-4.1873618)"
       id="g1621"
       style="fill:#dfdfdf;fill-opacity:1;stroke:none;stroke-opacity:1" />
    <g
       transform="matrix(0.26458333,0,0,0.26458333,21.850282,-4.1873618)"
       id="g1623"
       style="fill:#dfdfdf;fill-opacity:1;stroke:none;stroke-opacity:1" />
    <g
       transform="matrix(0.26458333,0,0,0.26458333,21.850282,-4.1873618)"
       id="g1625"
       style="fill:#dfdfdf;fill-opacity:1;stroke:none;stroke-opacity:1" />
    <g
       transform="matrix(0.26458333,0,0,0.26458333,21.850282,-4.1873618)"
       id="g1627"
       style="fill:#dfdfdf;fill-opacity:1;stroke:none;stroke-opacity:1" />
    <g
       transform="matrix(0.26458333,0,0,0.26458333,21.850282,-4.1873618)"
       id="g1629"
       style="fill:#dfdfdf;fill-opacity:1;stroke:none;stroke-opacity:1" />
    <g
       transform="matrix(0.26458333,0,0,0.26458333,21.850282,-4.1873618)"
       id="g1631"
       style="fill:#dfdfdf;fill-opacity:1;stroke:none;stroke-opacity:1" />
    <g
       transform="matrix(0.26458333,0,0,0.26458333,21.850282,-4.1873618)"
       id="g1633"
       style="fill:#dfdfdf;fill-opacity:1;stroke:none;stroke-opacity:1" />
    <g
       transform="matrix(0.26458333,0,0,0.26458333,21.850282,-4.1873618)"
       id="g1635"
       style="fill:#dfdfdf;fill-opacity:1;stroke:none;stroke-opacity:1" />
    <g
       transform="matrix(0.26458333,0,0,0.26458333,21.850282,-4.1873618)"
       id="g1637"
       style="fill:#dfdfdf;fill-opacity:1;stroke:none;stroke-opacity:1" />
    <flowRoot
       transform="scale(0.26458333)"
       style="font-style:normal;font-variant:normal;font-weight:normal;font-stretch:normal;font-size:13.33333302px;line-height:1.25;font-family:arial;-inkscape-font-specification:arial;text-align:center;text-anchor:middle;opacity:0.98999999;vector-effect:none;fill:#dfdfdf;fill-opacity:1;stroke:none;stroke-width:2.66666675;stroke-linecap:round;stroke-linejoin:round;stroke-miterlimit:4;stroke-dasharray:2.66666667, 2.66666667;stroke-dashoffset:0;stroke-opacity:1"
       id="flowRoot1688"
       xml:space="preserve"><flowRegion
         id="flowRegion1690"><rect
           y="314.39764"
           x="-307.08636"
           height="204.05081"
           width="359.61432"
           id="rect1692" /></flowRegion><flowPara
         id="flowPara1694" /></flowRoot>    <g
       id="g7760">
      <g
         id="g2303"
         transform="matrix(0.1548688,0,0,0.1548688,51.951773,33.550194)"
         style="stroke-width:1.7084353">
        <path
           d="m 184.61344,61.929363 c 0,-14.56215 -4.15226,-22.03817 -12.45678,-22.44755 -3.30427,-0.15595 -6.53055,0.37039 -9.66912,1.58878 -2.505,0.89673 -4.19124,1.78372 -5.07823,2.68045 v 34.75812 c 5.31216,3.33351 10.02976,4.88329 14.14303,4.63962 8.70415,-0.57508 13.0611,-7.64172 13.0611,-21.21942 z m 10.24419,0.60432 c 0,7.39804 -1.73498,13.53871 -5.22444,18.422 -3.88909,5.5266 -9.27923,8.37275 -16.17042,8.52871 -5.1952,0.1657 -10.54635,-1.46207 -16.05346,-4.87355 v 31.590317 l -8.90884,-3.17755 V 42.903043 c 1.46206,-1.79346 3.34325,-3.3335 5.62407,-4.63961 5.30242,-3.08983 11.74524,-4.67861 19.32848,-4.75658 l 0.12671,0.12671 c 6.93018,-0.08773 12.27159,2.75843 16.02422,8.5287 3.4992,5.29267 5.25368,12.07665 5.25368,20.37142 z"
           style="fill:#646464;fill-opacity:1;stroke-width:1.7084353"
           id="path46"
           inkscape:connector-curvature="0" />
        <path
           d="m 249.30487,83.265743 c 0,9.92254 -0.9942,16.794237 -2.9826,20.615097 -1.99816,3.82086 -5.79952,6.8717 -11.41385,9.14277 -4.55189,1.79346 -9.47417,2.76817 -14.75709,2.93387 l -1.47181,-5.61432 c 5.37064,-0.73103 9.15252,-1.46207 11.34561,-2.1931 4.31796,-1.46206 7.28108,-3.70389 8.90884,-6.706 1.30611,-2.446517 1.94942,-7.115367 1.94942,-14.026057 v -2.3198 c -6.09193,2.76817 -12.47628,4.14251 -19.15303,4.14251 -4.38619,0 -8.25579,-1.37434 -11.58929,-4.14251 -3.74289,-3.01186 -5.61433,-6.83272 -5.61433,-11.46258 v -37.07793 l 8.90884,-3.05084 v 37.3216 c 0,3.98656 1.28662,7.0569 3.85985,9.21101 2.57323,2.1541 5.90674,3.18729 9.99077,3.10932 4.08403,-0.08773 8.46047,-1.66676 13.10983,-4.75658 v -43.54025 h 8.90884 z"
           style="fill:#646464;fill-opacity:1;stroke-width:1.7084353"
           id="path48"
           inkscape:connector-curvature="0" />
        <path
           d="m 284.08249,88.997033 c -1.06243,0.08772 -2.03714,0.12671 -2.93387,0.12671 -5.03925,0 -8.96733,-1.19889 -11.77449,-3.60642 -2.79742,-2.40753 -4.20099,-5.73129 -4.20099,-9.97127 v -35.08953 h -6.10168 v -5.60457 h 6.10168 v -14.88381 l 8.89909,-3.16781 v 18.05162 h 10.01026 v 5.60457 h -10.01026 v 34.84585 c 0,3.34325 0.89673,5.71179 2.6902,7.09588 1.54004,1.14041 3.98656,1.79347 7.32006,1.95917 z"
           style="fill:#646464;fill-opacity:1;stroke-width:1.7084353"
           id="path50"
           inkscape:connector-curvature="0" />
        <path
           d="m 338.02288,88.266003 h -8.90884 v -34.38773 c 0,-3.49921 -0.81876,-6.51106 -2.44651,-9.02581 -1.88119,-2.84615 -4.49342,-4.26923 -7.84641,-4.26923 -4.08404,0 -9.19152,2.15411 -15.32242,6.46233 v 41.22044 h -8.90885 V 6.0687929 l 8.90885,-2.80716 V 40.700203 c 5.6923,-4.14251 11.91093,-6.21864 18.66566,-6.21864 4.7176,0 8.53846,1.58877 11.46258,4.75658 2.93388,3.1678 4.39594,7.11537 4.39594,11.83296 z"
           style="fill:#646464;fill-opacity:1;stroke-width:1.7084353"
           id="path52"
           inkscape:connector-curvature="0" />
        <path
           d="m 385.37424,60.525783 c 0,-5.59483 -1.06242,-10.21495 -3.17755,-13.87011 -2.51474,-4.45442 -6.42332,-6.80347 -11.70625,-7.04715 -9.76658,0.56534 -14.64012,7.56375 -14.64012,20.97574 0,6.15042 1.01369,11.28713 3.06057,15.41015 2.61223,5.25368 6.53056,7.84641 11.755,7.75869 9.80557,-0.07798 14.70835,-7.81717 14.70835,-23.22732 z m 9.75685,0.05848 c 0,7.96338 -2.03714,14.5914 -6.10168,19.88407 -4.47391,5.92623 -10.65357,8.89909 -18.53897,8.89909 -7.81716,0 -13.90909,-2.97286 -18.30503,-8.89909 -3.98656,-5.29267 -5.97497,-11.92069 -5.97497,-19.88407 0,-7.48576 2.15411,-13.78238 6.46232,-18.90935 4.5519,-5.43888 10.53661,-8.16806 17.93464,-8.16806 7.39805,0 13.42174,2.72918 18.06137,8.16806 4.3082,5.12697 6.46232,11.42359 6.46232,18.90935 z"
           style="fill:#646464;fill-opacity:1;stroke-width:1.7084353"
           id="path54"
           inkscape:connector-curvature="0" />
        <path
           d="m 446.20583,88.266003 h -8.90884 v -36.33715 c 0,-3.98656 -1.19889,-7.09588 -3.59667,-9.33772 -2.39779,-2.23208 -5.59483,-3.31401 -9.58139,-3.22628 -4.23023,0.07798 -8.25579,1.46206 -12.07664,4.14251 v 44.75864 h -8.90884 v -45.86006 c 5.12697,-3.73313 9.84456,-6.16991 14.15276,-7.31032 4.06455,-1.06243 7.65148,-1.58877 10.74131,-1.58877 2.11512,0 4.10352,0.20469 5.97496,0.61406 3.49921,0.80901 6.34535,2.31006 8.53845,4.51291 2.44651,2.43677 3.6649,5.3609 3.6649,8.78212 z"
           style="fill:#646464;fill-opacity:1;stroke-width:1.7084353"
           id="path56"
           inkscape:connector-curvature="0" />
        <path
           d="m 60.510156,6.3979729 c -4.583653,0.021298 -8.960939,0.4122177 -12.8125,1.09375 C 36.35144,9.4962267 34.291407,13.691825 34.291406,21.429223 v 10.21875 h 26.8125 v 3.40625 h -26.8125 -10.0625 c -7.792459,0 -14.6157592,4.683717 -16.7500002,13.59375 -2.46182,10.212966 -2.5710151,16.586023 0,27.25 1.9059283,7.937852 6.4575432,13.593748 14.2500002,13.59375 h 9.21875 v -12.25 c 0,-8.849902 7.657144,-16.656248 16.75,-16.65625 h 26.78125 c 7.454951,0 13.406253,-6.138164 13.40625,-13.625 v -25.53125 c 0,-7.266339 -6.12998,-12.7247775 -13.40625,-13.9375001 -4.605987,-0.7667253 -9.385097,-1.1150483 -13.96875,-1.09375 z m -14.5,8.2187501 c 2.769547,0 5.03125,2.298646 5.03125,5.125 -2e-6,2.816336 -2.261703,5.09375 -5.03125,5.09375 -2.779476,-1e-6 -5.03125,-2.277415 -5.03125,-5.09375 -1e-6,-2.826353 2.251774,-5.125 5.03125,-5.125 z"
           style="fill:url(#linearGradient1478);fill-opacity:1;stroke-width:1.7084353"
           id="path1948"
           inkscape:connector-curvature="0" />
        <path
           d="m 91.228906,35.054223 v 11.90625 c 0,9.230755 -7.825895,16.999999 -16.75,17 h -26.78125 c -7.335833,0 -13.406249,6.278483 -13.40625,13.625 v 25.531247 c 0,7.26634 6.318588,11.54032 13.40625,13.625 8.487331,2.49561 16.626237,2.94663 26.78125,0 6.750155,-1.95439 13.406253,-5.88761 13.40625,-13.625 V 92.897973 h -26.78125 v -3.40625 h 26.78125 13.406254 c 7.79246,0 10.69625,-5.435408 13.40624,-13.59375 2.79933,-8.398886 2.68022,-16.475776 0,-27.25 -1.92578,-7.757441 -5.60387,-13.59375 -13.40624,-13.59375 z m -15.0625,64.65625 c 2.779478,3e-6 5.03125,2.277417 5.03125,5.093747 -2e-6,2.82635 -2.251775,5.125 -5.03125,5.125 -2.76955,0 -5.03125,-2.29865 -5.03125,-5.125 2e-6,-2.81633 2.261697,-5.093747 5.03125,-5.093747 z"
           style="fill:url(#linearGradient1475);fill-opacity:1;stroke-width:1.7084353"
           id="path1950"
           inkscape:connector-curvature="0" />
        <path
           d="m 463.5544,26.909383 h 1.56195 v -9.79624 h 3.70013 v -1.16766 h -8.96221 v 1.16766 h 3.70013 v 9.79624 m 6.64702,0 h 1.33447 v -8.94703 l 2.89641,8.945906 h 1.48569 l 3.01816,-8.915576 v 8.9167 h 1.45579 v -10.9639 h -1.92589 l -3.29831,9.392857 -2.81297,-9.392857 h -2.15335 v 10.9639"
           style="font-style:normal;font-weight:normal;font-size:15.16445827px;line-height:125%;font-family:'Bitstream Vera Sans';fill:#646464;fill-opacity:1;stroke:none;stroke-width:1.7084353px;stroke-linecap:butt;stroke-linejoin:miter;stroke-opacity:1"
           id="text3004"
           inkscape:connector-curvature="0" />
        <path
           d="m 110.46717,132.28575 a 48.948285,8.6066786 0 1 1 -97.896571,0 48.948285,8.6066786 0 1 1 97.896571,0 z"
           transform="matrix(0.73406,0,0,0.809524,16.24958,27.00935)"
           style="opacity:0.44382019;fill:url(#radialGradient1480);fill-opacity:1;fill-rule:nonzero;stroke:none;stroke-width:34.16870499;stroke-miterlimit:4;stroke-dasharray:none;stroke-opacity:1"
           id="path1894"
           inkscape:connector-curvature="0" />
      </g>
      <g
         style="fill:#dfdfdf;fill-opacity:1;stroke:none;stroke-width:1.06677926;stroke-opacity:1"
         id="g1607"
         transform="matrix(0.23249487,0,0,0.26458333,35.748327,-4.1873618)">
        <g
           style="fill:#dfdfdf;fill-opacity:1;stroke:none;stroke-width:1.06677926;stroke-opacity:1"
           id="g1605">
          <path
             style="fill:#dfdfdf;fill-opacity:1;stroke:none;stroke-width:1.06677926;stroke-opacity:1"
             inkscape:connector-curvature="0"
             d="m 206.245,281.771 c -1.422,-0.481 -2.989,-0.004 -3.902,1.188 l -25.484,33.292 c -1.49,1.943 -3.846,3.104 -6.302,3.104 -1.382,0 -2.739,-0.358 -3.934,-1.045 L 49.856,251.671 c -1.083,-0.617 -2.414,-0.613 -3.493,0.014 -1.078,0.627 -1.742,1.779 -1.742,3.027 v 51.977 c 0,1.25 0.666,2.404 1.747,3.029 l 157,90.834 c 0.543,0.312 1.147,0.471 1.753,0.471 0.604,0 1.208,-0.156 1.749,-0.469 1.084,-0.625 1.751,-1.781 1.751,-3.031 V 285.085 c 0.001,-1.5 -0.956,-2.834 -2.376,-3.314 z"
             id="path1599" />
          <path
             style="fill:#dfdfdf;fill-opacity:1;stroke:none;stroke-width:1.06677926;stroke-opacity:1"
             inkscape:connector-curvature="0"
             d="m 386.75,251.685 c -1.077,-0.625 -2.408,-0.631 -3.492,-0.014 l -116.776,66.646 c -1.186,0.679 -2.54,1.037 -3.922,1.037 -2.458,0 -4.814,-1.157 -6.301,-3.1 l -25.486,-33.297 c -0.913,-1.191 -2.482,-1.67 -3.902,-1.188 -1.421,0.479 -2.377,1.813 -2.377,3.313 V 397.52 c 0,1.25 0.667,2.406 1.751,3.031 0.541,0.312 1.146,0.469 1.749,0.469 0.605,0 1.21,-0.158 1.753,-0.471 l 157,-90.834 c 1.081,-0.625 1.747,-1.779 1.747,-3.029 v -51.978 c -0.001,-1.244 -0.665,-2.396 -1.744,-3.023 z"
             id="path1601" />
          <path
             style="fill:#dfdfdf;fill-opacity:1;stroke:none;stroke-width:1.06677926;stroke-opacity:1"
             inkscape:connector-curvature="0"
             d="m 433.07,109.572 c -0.188,-1.134 -0.921,-2.104 -1.96,-2.595 L 273.064,32.428 c -1.266,-0.596 -2.766,-0.383 -3.812,0.545 l -45.172,39.973 -5.884,-3.121 c -1.026,-0.545 -2.256,-0.545 -3.282,0 l -5.882,3.123 -45.163,-39.975 c -1.048,-0.927 -2.548,-1.14 -3.813,-0.545 L 2.008,106.977 c -1.039,0.49 -1.772,1.461 -1.96,2.595 -0.188,1.134 0.194,2.288 1.021,3.087 l 47.161,45.59 -7.429,3.945 c -0.589,0.313 -1.076,0.787 -1.404,1.367 l -25.615,45.236 c -0.95,1.678 -0.364,3.809 1.311,4.764 l 150.726,86.023 c 1.521,0.869 3.448,0.48 4.514,-0.91 l 31.849,-41.598 c 0.62,-0.811 0.856,-1.85 0.646,-2.848 -0.209,-0.998 -0.843,-1.855 -1.736,-2.346 L 51.466,169.45 216.91992,83.861847 c 0,0 170.83459,85.198453 170.79,84.577003 L 232.026,251.883 c -0.895,0.49 -1.527,1.348 -1.736,2.346 -0.21,0.998 0.026,2.037 0.646,2.849 l 31.85,41.599 c 0.685,0.891 1.724,1.37 2.781,1.37 0.591,0 1.188,-0.147 1.732,-0.461 l 150.726,-86.023 c 1.675,-0.955 2.261,-3.086 1.312,-4.764 L 393.715,163.56 c -0.328,-0.58 -0.814,-1.053 -1.402,-1.365 l -7.421,-3.945 47.159,-45.59 c 0.824,-0.801 1.206,-1.955 1.019,-3.088 z"
             id="path1603"
             sodipodi:nodetypes="cccccccccccsccccccccccccccccccscccccccc" />
        </g>
      </g>
      <g
         id="Page-1"
         transform="matrix(0.13174565,0,0,0.13156986,55.555997,17.965346)"
         style="fill:none;fill-rule:evenodd;stroke:none;stroke-width:2.00962996">
        <g
           transform="translate(-2,-3)"
           id="logo_conda_RGB_inkscape"
           style="stroke-width:2.00962996">
          <g
             id="g3588"
             style="stroke-width:2.00962996">
            <g
               id="g19-Clipped"
               style="stroke-width:2.00962996">
              <g
                 transform="translate(2.309575,2.309575)"
                 id="g19"
                 style="stroke-width:2.00962996">
                <path
                   id="path21"
                   d="m 24.366011,55.429789 c -1.963138,-0.461915 -6.004894,-1.732181 -10.277606,-4.388192 4.619149,-2.65601 8.776383,-3.117925 10.277606,-3.233404 0.230958,-1.732181 0.577394,-3.348883 1.039309,-4.965585 -1.501224,-1.154788 -4.388192,-3.464362 -7.044203,-6.928724 4.272713,-0.346436 7.968033,0.230957 9.815692,0.577394 0.92383,-1.616703 2.078617,-3.117926 3.464362,-4.619149 -0.808351,-1.385745 -2.309574,-4.157235 -3.233404,-7.968033 3.464362,1.501224 6.004893,3.348883 7.275159,4.388192 1.732181,-1.270266 3.579841,-2.309575 5.427501,-3.233404 0,-1.616703 0,-4.503671 0.692872,-7.968033 2.425053,2.540532 3.926277,4.965586 4.50367,6.235852 2.309575,-0.461915 4.734628,-0.692873 7.27516,-0.577394 0.461915,-1.270266 1.385745,-3.464362 3.002447,-6.120372 1.154787,3.002446 1.616702,5.4275 1.84766,6.697766 2.540532,0.577393 4.965585,1.385744 7.27516,2.540532 3.695319,-3.117926 7.15968,-4.503671 11.201436,-5.542979 0,-5.081064 -0.692872,-10.046649 -3.348883,-15.0122346 C 70.903938,4.0417554 68.01697,3.1179256 65.130002,2.4250533 62.127555,4.0417554 59.702502,5.8894151 57.623885,7.8525534 56.122661,5.5429789 54.159523,3.1179256 51.73447,0.92382981 c -1.154788,0 -3.348883,-0.11547872 -7.621596,0.57739359 C 42.034256,4.1572342 40.533033,6.8132449 39.378246,9.4692556 36.837714,7.8525534 33.719788,6.4668087 30.139948,5.5429789 28.061331,6.4668087 26.098192,7.5061172 24.135054,8.6609045 23.442181,12.009788 23.211224,15.127713 23.326703,18.014681 20.324256,17.437288 16.859894,17.20633 13.164575,17.668245 11.894309,19.05399 10.624043,20.555213 9.4692556,22.171915 9.700213,26.32915 10.739522,29.90899 12.240745,33.026916 8.7763832,33.835267 5.1965427,35.33649 1.8476596,37.646065 1.3857447,39.147288 1.0393085,40.76399 0.69287236,42.265214 2.7714894,45.845055 5.4275001,48.732023 8.0835109,50.926118 5.4275001,53.120214 2.7714894,56.122661 0.34643618,60.164417 0.57739363,61.896597 0.92382981,63.5133 1.3857447,65.130002 H 1.5012234 C 4.2727129,59.356065 7.621596,55.545268 10.855,53.004736 c 6.582288,4.50367 13.049096,5.773936 13.972926,5.889415 -0.115479,-1.039309 -0.346436,-2.078618 -0.461915,-3.464362 z M 68.247928,6.35133 c 2.309574,3.4643618 3.117925,7.737075 3.348883,10.162128 -2.078618,0.808351 -5.312022,2.309574 -8.429948,4.850106 -0.461914,-2.194095 -1.270266,-5.4275 -3.002446,-9.122819 2.078617,-2.078617 4.734627,-4.1572341 8.083511,-5.889415 z M 48.03915,4.0417554 c 2.77149,2.3095746 4.850107,5.081064 6.35133,7.6215956 -2.425053,3.117926 -3.926276,6.120373 -4.734627,8.19899 -1.154788,-2.078617 -3.233405,-4.850106 -6.351331,-7.621596 1.039309,-2.6560107 2.540533,-5.5429789 4.734628,-8.1989896 z M 28.292288,9.700213 c 4.041755,0.808351 7.159681,2.309575 9.815692,4.157234 -1.154788,4.041756 -1.385745,7.621596 -1.385745,9.931171 -2.078617,-1.501224 -5.081064,-3.348883 -9.007341,-4.619149 -0.346436,-2.77149 -0.230957,-6.004894 0.577394,-9.469256 z m -4.272713,12.70266 c 0.808351,4.50367 2.309575,7.968032 3.464362,10.162128 C 24.827926,32.103086 20.786171,31.75665 16.2825,32.334043 14.781277,29.447075 13.62649,25.867235 13.395532,21.825479 17.321809,21.363564 20.90165,21.710001 24.019575,22.402873 Z M 3.810798,40.879469 C 7.159681,38.454416 10.855,37.18415 14.203883,36.491278 c 2.425054,3.810798 5.4275,6.582287 7.506118,8.314468 C 19.05399,45.267661 15.127713,46.306969 10.970479,48.96298 8.4299471,46.999842 5.8894151,44.343831 3.810798,40.879469 Z"
                   inkscape:connector-curvature="0"
                   style="fill:#ffffff;stroke:#2db24a;stroke-width:0.50240749" />
                <g
                   id="g23"
                   style="fill:#43b02a;stroke:#43b02a;stroke-width:0.50240749">
                  <path
                     id="path25"
                     d="m 46.422448,23.326703 c -0.692872,-1.270266 -2.078617,-3.810798 -4.50367,-6.235852 -0.808351,3.464362 -0.808351,6.466809 -0.692873,7.968033 -0.115478,0 2.194096,-1.154788 5.196543,-1.732181 z"
                     inkscape:connector-curvature="0"
                     style="stroke-width:0.50240749" />
                  <path
                     id="path27"
                     d=""
                     inkscape:connector-curvature="0"
                     style="stroke-width:0.50240749" />
                  <path
                     id="path29"
                     d=""
                     inkscape:connector-curvature="0"
                     style="stroke-width:0.50240749" />
                  <path
                     id="path31"
                     d=""
                     inkscape:connector-curvature="0"
                     style="stroke-width:0.50240749" />
                  <path
                     id="path35"
                     d="m 35.682926,28.176809 c -1.270266,-1.039308 -3.695319,-2.886968 -7.275159,-4.388191 0.92383,3.810798 2.425053,6.582287 3.233404,7.968032 0,0.230957 1.616702,-1.732181 4.041755,-3.579841 z"
                     inkscape:connector-curvature="0"
                     style="stroke-width:0.50240749" />
                  <path
                     id="path37"
                     d="m 49.655853,19.862341 c 0.808351,-2.078617 2.309574,-5.081064 4.734627,-8.19899 -1.501223,-2.6560103 -3.57984,-5.312021 -6.35133,-7.6215956 -2.194095,2.7714895 -3.695319,5.5429789 -4.734628,8.3144686 3.117926,2.656011 5.081065,5.4275 6.351331,7.506117 z"
                     inkscape:connector-curvature="0"
                     style="stroke-width:0.50240749" />
                  <path
                     id="path39"
                     d="m 28.292288,36.491278 v 0 c -1.84766,-0.346437 -5.542979,-0.92383 -9.815692,-0.577394 2.540532,3.57984 5.4275,5.889415 7.044203,6.928724 -0.115479,0.115478 0.808351,-3.002447 2.771489,-6.35133 z"
                     inkscape:connector-curvature="0"
                     style="stroke-width:0.50240749" />
                  <path
                     id="path43"
                     d="m 11.085958,48.96298 c 4.157234,-2.656011 8.083511,-3.810798 10.739521,-4.157234 -2.078617,-1.732181 -5.081064,-4.50367 -7.506117,-8.314468 -3.464362,0.692872 -7.0442022,2.078617 -10.3930853,4.388191 1.9631384,3.464362 4.5036704,6.120373 7.1596813,8.083511 z"
                     inkscape:connector-curvature="0"
                     style="stroke-width:0.50240749" />
                  <path
                     id="path45"
                     d="m 24.366011,47.923672 c -1.616702,0.115478 -5.658457,0.461915 -10.277606,3.233404 4.272712,2.656011 8.314468,3.926277 10.277606,4.388192 v 0 c -0.346436,-2.540532 -0.346436,-5.196543 0,-7.621596 z"
                     inkscape:connector-curvature="0"
                     style="stroke-width:0.50240749" />
                  <path
                     id="path47"
                     d="m 38.10798,13.857447 c -2.540532,-1.732181 -5.773937,-3.233404 -9.815692,-4.157234 -0.808351,3.464362 -0.92383,6.697766 -0.692872,9.469256 3.926276,1.270266 6.928723,3.117925 9.00734,4.619149 0,-2.309575 0.346436,-5.889415 1.501224,-9.931171 z"
                     inkscape:connector-curvature="0"
                     style="stroke-width:0.50240749" />
                  <path
                     id="path49"
                     d="m 73.675428,5.4275001 c 0,0 3.233404,9.9311709 3.348883,15.0122349 -3.926277,0.923829 -7.390639,2.309574 -11.201437,5.542978 2.078617,1.039309 3.926277,2.309575 5.658458,3.810798 1.847659,1.616703 3.57984,2.309575 6.004894,1.154788 1.385744,-0.92383 9.122819,-8.891862 9.93117,-9.931171 1.84766,-1.963138 1.385745,-5.196542 -0.577394,-6.697766 C 81.989896,9.8156918 73.675428,5.4275001 73.675428,5.4275001 Z"
                     inkscape:connector-curvature="0"
                     style="stroke-width:0.50240749" />
                  <path
                     id="path51"
                     d="M 1.9631383,37.646065 C 5.4275001,35.33649 8.8918619,33.835267 12.356224,33.026916 10.855,29.90899 9.8156918,26.32915 9.5847343,22.171915 6.2358512,26.906543 3.5798405,32.218565 1.9631383,37.646065 Z"
                     inkscape:connector-curvature="0"
                     style="stroke-width:0.50240749" />
                  <path
                     id="path55"
                     d="m 27.368458,32.565001 c -1.154787,-2.194096 -2.656011,-5.773936 -3.464362,-10.162128 -3.117925,-0.692872 -6.582287,-1.039309 -10.624042,-0.461915 0.230957,4.041755 1.385744,7.506117 2.886968,10.508564 4.619149,-0.692872 8.545425,-0.346436 11.201436,0.115479 z"
                     inkscape:connector-curvature="0"
                     style="stroke-width:0.50240749" />
                  <path
                     id="path57"
                     d=""
                     inkscape:connector-curvature="0"
                     style="stroke-width:0.50240749" />
                  <path
                     id="path59"
                     d="m 13.280054,17.783724 c 3.695319,-0.461915 7.159681,-0.230958 10.162127,0.346436 -0.115478,-2.886968 0.115479,-6.004894 0.808352,-9.3537768 1.963138,-1.1547872 3.926276,-2.1940958 6.004893,-3.1179256 3.69532,0.9238298 6.697766,2.3095745 9.238298,3.9262767 1.154788,-2.6560107 2.656011,-5.3120214 4.734628,-7.9680321 -10.508564,1.6167021 -20.439734,6.2358512 -28.06133,13.3955328 -2.425053,2.194095 -4.619149,4.734627 -6.5822877,7.390638 1.1547877,-1.732181 2.4250537,-3.233404 3.6953197,-4.619149 z"
                     inkscape:connector-curvature="0"
                     style="stroke-width:0.50240749" />
                  <path
                     id="path61"
                     d=""
                     inkscape:connector-curvature="0"
                     style="stroke-width:0.50240749" />
                  <path
                     id="path63"
                     d=""
                     inkscape:connector-curvature="0"
                     style="stroke-width:0.50240749" />
                  <path
                     id="path65"
                     d=""
                     inkscape:connector-curvature="0"
                     style="stroke-width:0.50240749" />
                  <path
                     id="path67"
                     d="M 1.3857447,39.955639 C 1.6167022,39.147288 1.7321809,38.454416 1.9631383,37.646065 1.7321809,38.454416 1.5012234,39.262767 1.3857447,39.955639 Z"
                     inkscape:connector-curvature="0"
                     style="stroke-width:0.50240749" />
                  <path
                     id="path69"
                     d=""
                     inkscape:connector-curvature="0"
                     style="stroke-width:0.50240749" />
                  <path
                     id="path71"
                     d="M 8.3144683,51.041597 C 5.6584576,48.847501 3.0024469,45.960533 0.92382981,42.380693 -0.23095745,48.270108 -0.23095745,54.505959 0.69287236,60.279895 2.8869682,56.23814 5.5429789,53.351172 8.3144683,51.041597 Z"
                     inkscape:connector-curvature="0"
                     style="stroke-width:0.50240749" />
                  <path
                     id="path73"
                     d=""
                     inkscape:connector-curvature="0"
                     style="stroke-width:0.50240749" />
                  <path
                     id="path75"
                     d="M 85.916173,80.835109 C 78.641013,73.906385 77.139789,69.402715 71.019417,74.137343 54.275002,87.301917 30.139948,79.449364 25.058884,59.009629 24.135054,58.894151 17.668245,57.623885 11.085958,53.120214 7.8525534,55.660746 4.5036703,59.587023 1.7321809,65.245481 H 1.6167022 C 12.125266,104.97016 63.282342,114.20846 86.955481,89.380534 90.881758,85.2233 87.301917,82.336332 85.916173,80.835109 Z"
                     inkscape:connector-curvature="0"
                     style="stroke-width:0.50240749" />
                  <path
                     id="path77"
                     d=""
                     inkscape:connector-curvature="0"
                     style="stroke-width:0.50240749" />
                  <path
                     id="path79"
                     d="m 68.247928,6.35133 c -3.348884,1.6167021 -6.004894,3.695319 -8.083511,5.889415 1.73218,3.695319 2.540532,7.044202 3.002446,9.122819 3.233405,-2.540532 6.466809,-4.041755 8.429948,-4.850106 C 71.365853,14.203883 70.557502,9.9311705 68.247928,6.35133 Z"
                     inkscape:connector-curvature="0"
                     style="stroke-width:0.50240749" />
                  <path
                     id="path81"
                     d=""
                     inkscape:connector-curvature="0"
                     style="stroke-width:0.50240749" />
                  <path
                     id="path83"
                     d="m 56.700055,16.628937 c -1.616702,2.540532 -2.540532,4.850106 -3.002447,6.120372 v 0 c 1.616702,0.115479 3.233404,0.346436 4.850106,0.692872 -0.115478,-1.385744 -0.692872,-3.810798 -1.847659,-6.813244 z"
                     inkscape:connector-curvature="0"
                     style="stroke-width:0.50240749" />
                  <path
                     id="path85"
                     d="M 69.518193,3.810798 C 68.9408,3.5798405 68.247928,3.3488831 67.670534,3.2334043 68.363406,3.3488831 68.9408,3.5798405 69.518193,3.810798 Z"
                     inkscape:connector-curvature="0"
                     style="stroke-width:0.50240749" />
                  <path
                     id="path87"
                     d="M 57.739363,7.8525534 C 59.81798,5.8894151 62.243034,4.0417554 65.245481,2.4250533 60.972768,1.3857447 56.584576,0.92382981 51.849948,0.92382981 54.275002,3.1179256 56.23814,5.5429789 57.739363,7.8525534 Z"
                     inkscape:connector-curvature="0"
                     style="stroke-width:0.50240749" />
                  <path
                     id="path89"
                     d=""
                     inkscape:connector-curvature="0"
                     style="stroke-width:0.50240749" />
                </g>
                <g
                   transform="translate(8.083511,62.358512)"
                   id="g91"
                   style="stroke-width:2.00962996">
                  <g
                     id="g99-Clipped"
                     style="stroke-width:2.00962996">
                    <mask
                       fill="white"
                       id="mask-2">
                      <use
                         id="use1252"
                         xlink:href="#path-1"
                         x="0"
                         y="0"
                         width="100%"
                         height="100%" />
                    </mask>
                    <g
                       id="SVGID_2_"
                       style="stroke-width:2.00962996" />
                    <g
                       mask="url(#mask-2)"
                       id="g99"
                       style="stroke-width:2.00962996">
                      <g
                         id="g1265"
                         transform="translate(-9.238298,-63.5133)"
                         style="stroke-width:2.00962996">
                        <g
                           id="rect107-Clipped"
                           style="stroke-width:2.00962996">
                          <mask
                             fill="white"
                             id="mask-4">
                            <use
                               id="use1256"
                               xlink:href="#path-3"
                               x="0"
                               y="0"
                               width="100%"
                               height="100%" />
                          </mask>
                          <g
                             id="SVGID_4_"
                             style="stroke-width:2.00962996" />
                          <rect
                             height="49.655853"
                             width="88.341225"
                             y="56.122662"
                             x="2.6560097"
                             mask="url(#mask-4)"
                             id="rect107"
                             style="fill:#ffffff;stroke:#2db24a;stroke-width:0.50240749" />
                        </g>
                        <g
                           id="use109"
                           style="stroke-width:2.00962996">
                          <rect
                             height="103.93085"
                             width="90.535324"
                             y="0.57739365"
                             x="0.46191722"
                             id="rect1262"
                             style="stroke:#2db24a;stroke-width:0.50240749" />
                        </g>
                      </g>
                    </g>
                  </g>
                  <g
                     id="use111"
                     style="stroke:#2db24a;stroke-width:0.50240749">
                    <path
                       id="path1269"
                       d="m 12.125266,1.9631383 c 3.69532,9.8156917 16.628937,22.8647877 32.565001,22.8647877 8.776383,0 16.744416,-3.117925 22.980267,-8.429947 0.461915,-0.230957 4.734628,4.619149 6.466809,6.466809 0.346436,0.461915 0.346436,0.577393 0.346436,0.577393 C 53.46665,41.803299 17.783724,39.147288 0.92382981,7.3906385 2.3095745,2.7714894 4.2727129,0 4.2727129,0 8.7763832,1.8476596 12.125266,1.9631383 12.125266,1.9631383 Z"
                       inkscape:connector-curvature="0"
                       style="stroke-width:0.50240749" />
                  </g>
                </g>
              </g>
            </g>
            <g
               transform="translate(97.00213,2.309575)"
               id="g119"
               style="fill:#43b02a;stroke-width:2.00962996">
              <path
                 id="path121"
                 d="m 51.272555,0.80835109 c 28.407766,0 51.041595,22.86478791 51.041595,51.15707591 0,28.292288 -22.749307,50.926113 -51.041595,50.926113 -28.292288,0 -50.92611882,-22.518346 -50.92611882,-50.926113 0,-28.407767 22.51835182,-51.15707591 50.92611882,-51.15707591 z m 0,83.72207691 c 17.899202,0 32.680479,-14.665798 32.680479,-32.449522 0,-17.783724 -14.781277,-32.795959 -32.680479,-32.795959 -17.899203,0 -32.449523,14.896756 -32.449523,32.795959 0,17.899202 14.55032,32.449522 32.449523,32.449522 z"
                 inkscape:connector-curvature="0"
                 style="stroke-width:2.00962996" />
              <path
                 id="path123"
                 d="m 117.67282,3.3488831 c 0,-1.3857448 1.27027,-2.54053201 2.65601,-2.54053201 h 3.57984 L 182.9183,63.5133 h 0.11548 V 4.9655852 c 0,-1.3857447 1.15479,-2.6560107 2.65601,-2.6560107 h 13.0491 c 1.38574,0 2.65601,1.270266 2.65601,2.6560107 V 100.46649 c 0,1.38575 -1.27027,2.54053 -2.65601,2.54053 H 195.39 L 136.03394,37.877022 h -0.11548 V 98.84979 c 0,1.38575 -1.15479,2.65601 -2.65601,2.65601 h -12.93362 c -1.38574,0 -2.65601,-1.27026 -2.65601,-2.65601 z"
                 inkscape:connector-curvature="0"
                 style="stroke-width:2.00962996" />
              <path
                 id="path125"
                 d="m 223.45134,4.9655852 c 0,-1.3857447 1.15478,-2.6560107 2.54053,-2.6560107 h 33.60431 c 27.36846,0 49.77133,22.2873945 49.77133,49.5403735 0,27.483937 -22.40287,49.771332 -49.77133,49.771332 h -33.60431 c -1.38575,0 -2.54053,-1.27027 -2.54053,-2.656011 z m 34.52813,79.2184068 c 18.4766,0 31.87213,-13.857448 31.87213,-32.449522 0,-18.476597 -13.51101,-32.334044 -31.87213,-32.334044 h -16.16702 v 64.783566 z"
                 inkscape:connector-curvature="0"
                 style="stroke-width:2.00962996" />
              <path
                 id="path127"
                 d="M 307.63533,97.810481 351.7482,2.3095745 c 0.46192,-0.8083511 1.15479,-1.61670214 2.42505,-1.61670214 h 1.38575 c 1.38574,0 1.96314,0.69287234 2.42505,1.61670214 l 43.65096,95.5009065 c 0.80835,1.84766 -0.23096,3.695319 -2.42505,3.695319 h -12.35623 c -2.07861,0 -3.11792,-0.80835 -4.15723,-2.886967 l -6.92872,-15.358671 h -42.3807 l -6.92872,15.358671 c -0.57739,1.385747 -1.84766,2.886967 -4.15723,2.886967 H 309.9449 c -1.96314,0 -3.11792,-1.847659 -2.30957,-3.695319 z m 61.3192,-30.139947 -14.20388,-31.179256 h -0.46192 l -13.85744,31.179256 z"
                 inkscape:connector-curvature="0"
                 style="stroke-width:2.00962996" />
            </g>
          </g>
        </g>
      </g>
      <g
         aria-label="MINICONDA"
         transform="matrix(-0.00432825,-0.17747809,-0.17747809,0.00432825,192.3038,106.11509)"
         style="font-style:normal;font-variant:normal;font-weight:normal;font-stretch:normal;font-size:40.00000381px;line-height:1.25;font-family:xkcd;-inkscape-font-specification:xkcd;text-align:center;text-anchor:middle;opacity:0.98999999;vector-effect:none;fill:#43b02a;fill-opacity:1;stroke:none;stroke-width:3.97427011;stroke-linecap:round;stroke-linejoin:round;stroke-miterlimit:4;stroke-dasharray:3.97426984, 3.97426984;stroke-dashoffset:0;stroke-opacity:1"
         id="flowRoot5159">
        <path
           style="fill:#43b02a;fill-opacity:1;stroke-width:3.97427011"
           d="m 110.49311,543.09221 c 6.25143,0.002 12.95026,-0.78689 19.19893,-0.78491 3.58018,10e-4 8.13054,0.27174 6.84433,2.54275 -0.68614,1.21148 -4.917,2.97781 -9.01222,4.62689 -2.0481,0.82474 -4.09651,1.64961 -5.68548,2.4073 -1.65947,0.75779 -2.82108,1.38096 -3.0982,1.86954 -0.19114,0.33697 0.26962,0.82569 1.11383,1.38189 0.84423,0.55623 1.99519,1.12935 3.15268,1.75306 2.2448,1.24749 4.59215,2.56251 3.99056,3.62461 -1.45179,2.56316 -14.8905,2.76555 -18.05531,2.76555 -6.7878,0 -13.21251,-0.45558 -19.897294,-0.45563 -3.378076,-2e-5 -6.884652,0.28687 -10.193109,0.28686 -3.519986,-1e-5 -9.117325,-0.18571 -7.779878,-2.53162 0.548329,-0.96178 4.554737,-1.38334 8.381132,-1.55181 3.845079,-0.20217 7.961429,-0.20189 9.192695,-0.2018 7.351584,4.9e-4 14.263904,0.52374 21.612524,0.52417 0,0 0.98439,6e-5 0.98439,6e-5 0.35156,2e-5 0.80858,5e-5 1.17928,-0.0337 0.8468,-0.0674 1.42505,-0.21911 1.57809,-0.48887 0.17217,-0.30347 -0.0136,-0.65753 -0.42635,-1.04532 -0.41269,-0.38778 -1.10657,-0.77557 -1.72704,-1.23076 -1.23439,-0.85978 -2.49759,-1.85435 -1.86611,-2.96652 0.80359,-1.41525 3.84287,-2.93088 6.71241,-4.21036 1.46164,-0.65647 2.84978,-1.24552 3.95371,-1.76723 1.10382,-0.52165 1.80553,-0.89185 1.9583,-1.16116 0.0764,-0.13465 -0.24615,-0.18524 -0.57823,-0.21899 -0.47254,-0.0338 -0.99932,-0.034 -1.21003,-0.034 -2.45841,-6.4e-4 -5.02523,0.25123 -7.4138,0.25062 -8.5722,-0.002 -17.36371,0.68607 -25.870427,0.68399 -3.972901,-9.7e-4 -8.623889,-0.17057 -7.16449,-2.7304 0.633536,-1.11125 5.912858,-1.24435 7.63514,-1.24382 5.693443,0.002 11.497627,-0.13116 17.259317,-0.1294 1.72127,5.3e-4 3.43935,0.0684 5.23069,0.0689 0,0 -4e-5,9e-5 -4e-5,9e-5"
           id="path5167"
           inkscape:connector-curvature="0" />
        <path
           style="fill:#43b02a;fill-opacity:1;stroke-width:3.97427011"
           d="m 130.99723,531.32255 c 2.24832,-0.0662 4.67791,-0.26685 6.993,-0.26583 3.57756,0.002 5.4891,0.59062 4.59464,2.17014 -0.93272,1.64708 -3.15432,2.10019 -6.87334,2.09878 -2.21056,-8.4e-4 -4.45334,-0.0689 -6.594,-0.0697 -9.40654,-0.004 -19.47296,0.34586 -29.07666,0.67877 -1.68926,0.0667 -3.28924,0.0997 -4.94039,0.0991 -3.021454,-10e-4 -12.049168,-0.0717 -10.926893,-2.04014 1.083621,-1.90061 6.346969,-2.13384 9.719099,-2.13238 2.458604,10e-4 4.776584,0.002 7.273104,-0.0641 9.949,-0.26473 19.75186,-0.0923 29.83142,-0.47458 0,0 2e-5,-4e-5 2e-5,-4e-5"
           id="path5169"
           inkscape:connector-curvature="0" />
        <path
           style="fill:#43b02a;fill-opacity:1;stroke-width:3.97427011"
           d="m 101.5852,507.68057 c 1.62574,-2.85141 12.49819,-2.84325 16.14491,-2.84052 5.0837,0.004 9.89331,0.4267 15.04571,0.43053 5.88747,0.004 11.95457,-0.30969 17.90985,-0.30524 0.63051,4.7e-4 3.11736,0.002 5.44197,0.10466 2.14938,0.10219 4.52841,0.35541 4.1773,0.97542 -0.70233,1.24019 -2.35343,2.54699 -5.54998,2.74603 -4.53129,0.26524 -9.29363,0.19487 -13.67413,0.19186 0,0 -9.83041,-0.0403 -9.83041,-0.0403 -4.92428,-0.037 -9.72889,-0.59398 -14.74369,-0.59747 -0.0702,-5e-5 -0.66635,-4.7e-4 -1.17648,0.0328 -0.49102,-3.4e-4 -0.98203,-6.8e-4 -1.03933,0.1 -0.13369,0.23484 1.445,0.60513 3.04277,0.94187 1.66792,0.33677 3.45056,0.65685 3.83325,0.72423 5.94415,1.14518 28.14918,7.504 26.10398,11.11362 -1.28469,2.26738 -11.49182,2.26262 -14.29846,2.26131 -11.19385,-0.005 -22.30871,-0.2794 -33.50996,-0.28467 -2.598943,-10e-4 -6.162177,-1.14627 -5.338093,-2.59166 0.91974,-1.61313 7.000573,-1.74432 9.387883,-1.74304 5.16026,0.003 10.10946,0.37508 15.26824,0.37782 4.87728,0.003 9.42309,0.52578 14.36928,0.52837 0.0702,3e-5 1.36494,0.0679 1.44115,-0.0664 0.50506,-0.88998 -18.22476,-5.72056 -21.131,-6.41079 -3.5156,-0.79136 -13.28105,-3.18179 -11.87477,-5.64829 0,0 1e-5,-2e-5 1e-5,-2e-5"
           id="path5171"
           inkscape:connector-curvature="0" />
        <path
           style="fill:#43b02a;fill-opacity:1;stroke-width:3.97427011"
           d="m 155.94569,494.12331 c 2.24348,-0.065 4.66773,-0.26392 6.97791,-0.26191 3.56998,0.003 5.47802,0.59089 4.58692,2.16448 -0.92922,1.6409 -3.1457,2.09147 -6.85683,2.08848 -2.20587,-0.002 -4.44395,-0.0706 -6.58008,-0.0723 -9.38657,-0.008 -19.4313,0.33632 -29.01429,0.66394 -1.68561,0.0657 -3.28216,0.098 -4.92981,0.0967 -3.01504,-0.002 -12.02364,-0.0766 -10.90559,-2.03764 1.07955,-1.89347 6.33151,-2.12363 9.69648,-2.12074 2.45339,0.002 4.76645,0.004 7.25761,-0.0608 9.92762,-0.25955 19.70984,-0.0836 29.76765,-0.46014 0,0 3e-5,-5e-5 3e-5,-5e-5"
           id="path5173"
           inkscape:connector-curvature="0" />
        <path
           style="fill:#43b02a;fill-opacity:1;stroke-width:3.97427011"
           d="m 120.78714,477.85932 c 1.71597,-3.00954 5.7716,-7.41953 14.101,-7.4097 1.85457,0.002 3.93494,0.0381 3.23129,1.2742 -0.35187,0.61815 -0.9841,1.0521 -1.78184,1.46918 -0.70879,0.38377 -1.61505,0.68374 -2.50538,1.01718 -1.75537,0.68371 -3.64764,1.48444 -4.61899,3.18968 -2.82962,4.96747 5.35243,8.32399 15.12281,8.33326 6.44196,0.006 19.62084,-2.79282 23.23825,-5.90066 0.8272,-0.71828 1.53337,-1.47005 1.9597,-2.22205 0.6252,-1.10278 0.44975,-2.08928 0.2335,-2.942 -0.11285,-0.41798 -0.17472,-0.80246 -0.26499,-1.13681 -0.0903,-0.33435 -0.0851,-0.65185 0.0474,-0.88566 0.52086,-0.91843 3.91672,-1.23192 5.2799,-1.23033 5.24246,0.006 5.71977,3.73279 4.61301,5.68719 -4.30683,7.60533 -22.11124,12.20884 -36.67758,12.19581 -11.69976,-0.0105 -25.32432,-3.17227 -22.93468,-9.51575 0.21281,-0.61903 0.58472,-1.27132 0.95661,-1.92354 0,0 -6e-5,0 -6e-5,0"
           id="path5175"
           inkscape:connector-curvature="0" />
        <path
           style="fill:#43b02a;fill-opacity:1;stroke-width:3.97427011"
           d="m 180.29832,457.26737 c -1.79749,-1.63681 -13.74627,-3.92157 -18.25186,-3.92806 -7.23119,-0.0104 -20.74778,3.0899 -22.90423,6.87566 -1.85333,3.25362 4.04187,6.30106 10.66073,6.10882 0,0 0.9981,-0.0322 0.9981,-0.0322 8.01849,-0.25723 21.2819,-1.62644 27.51785,-5.03989 0.6082,-0.33292 2.071,-1.24861 2.28835,-1.63203 0.34962,-0.61675 0.29005,-1.86784 -0.30892,-2.35233 0,0 -2e-5,3e-5 -2e-5,3e-5 m -38.18623,-3.73993 c 6.36864,-1.72528 14.77314,-3.5302 21.33897,-3.52041 9.2179,0.0137 29.11717,3.60959 26.00368,9.10752 -0.11326,0.19999 -0.30586,0.41658 -0.50772,0.64982 -6.38505,6.58346 -26.17294,10.33389 -38.9368,10.31875 -11.40423,-0.0135 -21.95062,-4.85567 -18.65835,-10.62985 1.50256,-2.63529 5.57398,-4.49853 10.76025,-5.92583 0,0 -3e-5,0 -3e-5,0"
           id="path5177"
           inkscape:connector-curvature="0" />
        <path
           style="fill:#43b02a;fill-opacity:1;stroke-width:3.97427011"
           d="m 146.50025,433.37529 c 1.61097,-2.82551 12.42757,-2.8062 16.05556,-2.79972 5.0576,0.009 9.84345,0.43329 14.96939,0.44241 5.85725,0.0104 11.8925,-0.29471 17.81722,-0.28414 0.62728,0.001 3.10136,0.006 5.41427,0.10939 2.13858,0.10354 4.50597,0.35707 4.15804,0.97145 -0.69595,1.22894 -2.33566,2.52294 -5.51536,2.71699 -4.50744,0.25831 -9.24548,0.18361 -13.6035,0.1761 0,0 -9.78001,-0.0502 -9.78001,-0.0502 -4.89907,-0.0417 -9.68024,-0.59898 -14.66928,-0.60763 -0.0699,-1.2e-4 -0.66293,-10e-4 -1.17036,0.0313 -0.4885,-8.4e-4 -0.97699,-0.002 -1.03377,0.0981 -0.13248,0.23271 1.43894,0.60148 3.02926,0.93701 1.6601,0.33564 3.4343,0.65484 3.81517,0.72205 5.91617,1.14159 28.02136,7.46935 25.99474,11.04619 -1.27303,2.24679 -11.42771,2.23151 -14.21992,2.22731 -11.13632,-0.0168 -22.19464,-0.30009 -33.33828,-0.31691 -2.58557,-0.004 -6.13306,-1.1429 -5.31646,-2.57514 0.91138,-1.59846 6.96063,-1.72225 9.33567,-1.71851 5.13373,0.008 10.05832,0.38233 15.19059,0.39038 4.85221,0.008 9.37582,0.53105 14.2966,0.53873 0.0699,1.1e-4 1.35807,0.0687 1.4336,-0.0644 0.50047,-0.8819 -18.14392,-5.6908 -21.03677,-6.37817 -3.49931,-0.78827 -13.21992,-3.16848 -11.82641,-5.61258 0,0 1e-5,-2e-5 1e-5,-2e-5"
           id="path5179"
           inkscape:connector-curvature="0" />
        <path
           style="fill:#43b02a;fill-opacity:1;stroke-width:3.97427011"
           d="m 203.52012,414.77419 c -0.86019,-2.1084 -3.72314,-3.1426 -8.56136,-3.15264 -9.99193,-0.0207 -30.98611,5.24735 -33.96298,10.47349 -0.62399,1.09546 0.23007,1.4959 2.42678,1.50005 1.77821,0.003 3.61592,-0.15932 5.45056,-0.25553 9.44368,-0.53032 19.16544,-0.51181 28.43155,-0.49417 0.87075,0.002 1.49767,0.003 2.07375,-0.0293 0.50642,-0.0323 0.90829,-0.0647 1.17369,-0.16382 0.67006,-0.19799 1.14891,-0.61219 2.1911,-1.58978 0.28965,-0.26507 0.44945,-0.54698 0.61865,-0.84547 0.90225,-1.59171 0.73969,-3.94848 0.15823,-5.44286 0,0 3e-5,3e-5 3e-5,3e-5 m -17.59978,-6.32255 c 3.15195,-0.63996 6.46891,-1.08051 9.67072,-1.07366 15.37824,0.0329 17.85304,8.76 14.36992,14.91039 -0.61994,1.09467 -1.41303,2.37186 -2.5903,3.46584 -0.91605,0.87869 -4.21336,1.22147 -7.42367,1.34848 -3.28036,0.12689 -6.65715,0.0542 -8.15544,0.0514 -8.4335,-0.0155 -16.88879,-0.18063 -25.44578,0.13608 -2.98609,0.0943 -6.05406,0.45441 -9.05382,0.44893 -7.15169,-0.0131 -5.84249,-2.55442 -4.32798,-5.21083 4.41741,-7.74802 18.32143,-11.08861 32.95637,-14.0767 0,0 -2e-5,3e-5 -2e-5,3e-5"
           id="path5181"
           inkscape:connector-curvature="0" />
        <path
           style="fill:#43b02a;fill-opacity:1;stroke-width:3.97427011"
           d="m 214.46172,397.38113 c 1.70556,-3.0082 -6.64878,-5.64208 -12.21018,-5.65529 -1.00811,-0.002 -1.90814,0.11128 -2.70289,0.40724 -0.93007,0.41149 -4.62689,5.99812 -5.14381,6.90779 0,0 -0.34778,0.61202 -0.34778,0.61202 -0.1128,0.1985 -0.11836,0.331 -0.0357,0.43057 0.0451,0.16573 0.44759,0.31571 1.66512,0.31845 1.84363,0.004 3.74807,-0.40566 5.54623,-0.56722 1.29236,-0.12958 4.37972,-0.35446 7.27573,-0.795 3.03467,-0.44016 5.56896,-0.98073 5.95327,-1.65856 0,0 0,0 0,0 m -41.81237,-9.74705 c 0.53691,-0.94171 1.84103,-2.12952 4.4841,-2.12299 2.1908,0.005 6.82728,0.5461 11.53953,1.13654 4.71187,0.59041 9.62914,1.24743 12.5056,1.45289 11.38758,0.90413 26.64104,2.77646 22.5238,10.0466 -1.05802,1.86825 -4.82066,2.91951 -9.06395,3.58903 -4.24417,0.66966 -8.91815,0.99063 -11.8659,1.39829 -5.0815,0.66815 -10.12281,1.38626 -15.21983,1.95526 -4.4339,0.50424 -8.82888,0.69367 -13.18899,1.06559 -0.43671,0.0323 -1.41751,0.16275 -2.34466,0.26024 -0.9272,0.0975 -4.75163,0.13902 -5.03026,0.13843 -2.78645,-0.006 -3.29554,-0.70359 -2.38927,-2.2934 0.90608,-1.58947 5.36823,-1.89453 9.74476,-2.05058 2.18004,-0.0946 4.42665,-0.12276 6.43518,-0.28402 1.91995,-0.12829 3.42785,-0.39005 4.25761,-0.86869 1.36301,-0.74246 4.30353,-6.03516 4.98051,-7.22547 0.90248,-1.58677 0.37717,-2.31617 -0.95265,-2.73303 -0.687,-0.20021 -1.48771,-0.38415 -2.57888,-0.48605 -1.07238,-0.13494 -2.25854,-0.25361 -3.57156,-0.45533 -0.81303,-0.10124 -1.88835,-0.17 -3.06804,-0.23903 -1.17975,-0.069 -2.51747,-0.10533 -3.72917,-0.24063 -2.30318,-0.23723 -4.18392,-0.78785 -3.46793,-2.04365 0,0 0,0 0,0"
           id="path5183"
           inkscape:connector-curvature="0" />
      </g>
    </g>
  </g>
</svg>
